<svg width="57" height="59" viewBox="0 0 57 59" fill="none" xmlns="http://www.w3.org/2000/svg">
<path fill-rule="evenodd" clip-rule="evenodd" d="M41.8454 23.4227C41.8454 33.5973 33.5973 41.8454 23.4227 41.8454C13.2481 41.8454 5 33.5973 5 23.4227C5 13.2481 13.2481 5 23.4227 5C33.5973 5 41.8454 13.2481 41.8454 23.4227ZM36.8472 42.619C33.0457 45.2824 28.4167 46.8454 23.4227 46.8454C10.4867 46.8454 0 36.3587 0 23.4227C0 10.4867 10.4867 0 23.4227 0C36.3587 0 46.8454 10.4867 46.8454 23.4227C46.8454 29.5602 44.4848 35.1464 40.622 39.3228L55.4391 54.1399C56.4155 55.1162 56.4155 56.6992 55.4391 57.6755C54.4628 58.6518 52.8799 58.6518 51.9036 57.6755L36.8472 42.619Z" fill="black"/>
</svg>
