<?xml version="1.0" encoding="utf-8"?>
<!-- Generator: Adobe Illustrator 24.3.0, SVG Export Plug-In . SVG Version: 6.00 Build 0)  -->
<svg version="1.1" id="Camada_1" xmlns="http://www.w3.org/2000/svg" xmlns:xlink="http://www.w3.org/1999/xlink" x="0px" y="0px"
	 viewBox="0 0 1200 251" style="enable-background:new 0 0 1200 251;" xml:space="preserve">
<style type="text/css">
	.st0{fill:#010202;}
</style>
<path class="st0" d="M305.1,1.5c-52.2,0-94.6,42.3-94.6,94.6s42.3,94.6,94.6,94.6s94.6-42.3,94.6-94.6S357.3,1.5,305.1,1.5z
	 M305.1,168.3c-39.9,0-72.2-32.3-72.2-72.2s32.3-72.2,72.2-72.2s72.2,32.3,72.2,72.2S344.9,168.3,305.1,168.3z"/>
<path class="st0" d="M513,1.5c-29,0-54.9,13-72.2,33.5c-13.9,16.5-22.3,37.8-22.3,61v143.3c0,6.2,5,11.2,11.2,11.2
	c6.2,0,11.2-5,11.2-11.2v-82.2c17,20.1,42.4,33.1,70.7,33.5h3.1c51.5-0.8,93-42.8,93-94.5C607.5,43.8,565.2,1.5,513,1.5z M513,168.3
	c-39.9,0-72.2-32.3-72.2-72.2s32.3-72.2,72.2-72.2c39.9,0,72.2,32.3,72.2,72.2S552.9,168.3,513,168.3z"/>
<path class="st0" d="M814.8,12.7V172c0,6.4-0.8,12.6-2.2,18.6c-3.4,13.9-10.4,26.4-20.1,36.3c-14.2,14.6-34.1,23.6-56.1,23.6
	c-22,0-41.9-9.1-56.1-23.6c-5.4-5.5-10-11.8-13.6-18.7c-0.1-0.2-0.2-0.3-0.2-0.5c-0.7-1.5-1.1-3.1-1.1-4.8c0-6.2,5-11.2,11.2-11.2
	c1.3,0,2.6,0.2,3.7,0.6c2.6,0.9,4.8,2.8,6.1,5.2l0.2,0.5l0,0c9.4,17.9,28.1,30.2,49.8,30.2c24.5,0,45.3-15.7,53-37.6
	c2-5.8,3.1-12.1,3.1-18.6V167c-0.1,0.1-0.1,0.1-0.2,0.2c-14.2,14.5-34,23.4-55.9,23.4c-21.9,0-41.7-9-55.9-23.4
	c-0.1-0.1-0.1-0.1-0.2-0.2c-7-7.1-12.6-15.5-16.4-24.9c-3.8-9.1-5.9-19-5.9-29.4V12.4c0.2-6,5.1-10.9,11.2-10.9
	c6.2,0,11.2,5,11.2,11.2v104.6c0.1-0.1,0.1-0.1,0.2-0.2c0.8,9.2,3.8,17.7,8.4,25.1c9.9,15.7,27.5,26.2,47.5,26.2
	c20,0,37.5-10.4,47.5-26.2c4.7-7.4,7.7-15.9,8.4-25.1c0.1,0.1,0.1,0.1,0.2,0.2V12.7c0-6.2,5-11.2,11.2-11.2
	C809.8,1.5,814.8,6.5,814.8,12.7z"/>
<path class="st0" d="M928.2,1.5c-52.2,0-94.6,42.3-94.6,94.6s42.3,94.6,94.6,94.6c52.2,0,94.6-42.3,94.6-94.6S980.4,1.5,928.2,1.5z
	 M928.2,168.3c-39.9,0-72.2-32.3-72.2-72.2s32.3-72.2,72.2-72.2c39.9,0,72.2,32.3,72.2,72.2S968.1,168.3,928.2,168.3z"/>
<path class="st0" d="M1198.4,12.7v99.5c0,21.3-8.5,40.7-22.3,54.8c-14.2,14.6-34.1,23.6-56.1,23.6s-41.9-9-56.1-23.6
	c-13.8-14.1-22.3-33.5-22.3-54.8V12.7c0-6.2,5-11.2,11.2-11.2c6.2,0,11.2,5,11.2,11.2v99.5c0,31,25.1,56.1,56.1,56.1
	c31,0,56.1-25.1,56.1-56.1V12.7c0-6.2,5-11.2,11.2-11.2C1193.4,1.5,1198.4,6.5,1198.4,12.7z"/>
<path class="st0" d="M97.1,1.5c-29,0-54.9,13-72.2,33.5C11,51.5,2.6,72.8,2.6,96.1v143.3c0,6.2,5,11.2,11.2,11.2s11.2-5,11.2-11.2
	v-82.2c17.3,20.5,43.3,33.5,72.2,33.5c52.2,0,94.6-42.3,94.6-94.6S149.4,1.5,97.1,1.5z M97.1,168.3c-39.9,0-72.2-32.3-72.2-72.2
	s32.3-72.2,72.2-72.2s72.2,32.3,72.2,72.2S137,168.3,97.1,168.3z"/>
</svg>
