<svg width="77" height="70" viewBox="0 0 77 70" fill="none" xmlns="http://www.w3.org/2000/svg">
<path fill-rule="evenodd" clip-rule="evenodd" d="M54.7767 23.0503C54.7767 33.0192 46.6953 41.1005 36.7264 41.1005C26.7575 41.1005 18.6762 33.0192 18.6762 23.0503C18.6762 13.0814 26.7575 5 36.7264 5C46.6953 5 54.7767 13.0814 54.7767 23.0503ZM45.8165 44.2389C54.0268 40.712 59.7767 32.5526 59.7767 23.0503C59.7767 10.32 49.4567 0 36.7264 0C23.9961 0 13.6762 10.32 13.6762 23.0503C13.6762 33.0128 19.9964 41.4991 28.8461 44.7183C17.7692 47.3197 7.50103 54.4611 0.8639 66.1425C0.181817 67.343 0.602052 68.8691 1.80252 69.5512C3.00299 70.2332 4.5291 69.813 5.21119 68.6125C20.3719 41.9295 56.627 41.9297 71.7878 68.6125C72.4699 69.813 73.996 70.2332 75.1965 69.5512C76.3969 68.8691 76.8172 67.343 76.1351 66.1425C69.0335 53.6437 57.7748 46.3425 45.8165 44.2389Z" fill="black"/>
</svg>
