<svg width="50" height="59" viewBox="0 0 50 59" fill="none" xmlns="http://www.w3.org/2000/svg">
<path d="M40 47.2C41.3261 47.2 42.5979 47.8216 43.5355 48.9281C44.4732 50.0345 45 51.5352 45 53.1C45 54.6648 44.4732 56.1655 43.5355 57.2719C42.5979 58.3784 41.3261 59 40 59C37.225 59 35 56.345 35 53.1C35 49.8255 37.225 47.2 40 47.2ZM0 0H8.175L10.525 5.9H47.5C48.163 5.9 48.7989 6.2108 49.2678 6.76404C49.7366 7.31727 50 8.06761 50 8.85C50 9.3515 49.875 9.853 49.7 10.325L40.75 29.4115C39.9 31.211 38.25 32.45 36.375 32.45H17.75L15.5 37.2585L15.425 37.6125C15.425 37.8081 15.4908 37.9957 15.6081 38.134C15.7253 38.2723 15.8842 38.35 16.05 38.35H45V44.25H15C12.225 44.25 10 41.595 10 38.35C10 37.3175 10.225 36.344 10.6 35.518L14 28.2905L5 5.9H0V0ZM15 47.2C16.3261 47.2 17.5979 47.8216 18.5355 48.9281C19.4732 50.0345 20 51.5352 20 53.1C20 54.6648 19.4732 56.1655 18.5355 57.2719C17.5979 58.3784 16.3261 59 15 59C12.225 59 10 56.345 10 53.1C10 49.8255 12.225 47.2 15 47.2ZM37.5 26.55L44.45 11.8H12.85L18.75 26.55H37.5Z" fill="black"/>
</svg>
